# xmcd
#
# Track frame offsets:
#	150
#	21327
#	41895
#	59345
#	77322
#	93740
#	110085
#	127865
#	140935
#	156520
#	182677
#	204142
#	221852
#	247955
#	267237
#	284077
#	305557
#	321632
#
# Disc length: 4673 seconds
#
# Revision: 1
# Processed by: cddbd v1.5.1PL0 Copyright (c) Steve Scherf et al.
# Submitted via: CDex 1.50Beta5
#
DISCID=1c123f12
DTITLE=Various Artist - ラヴ・イン・ローズ
DYEAR=2002
DGENRE=Pop
TTITLE0=ブルー・アイズ・ブルー
TTITLE1=コンスタント・クレヴィング
TTITLE2=ニューヨーク・シティ・セレナーデ
TTITLE3=ハヴ・アイ・トールド・ユー・レイトリー
TTITLE4=ユーアー・スティル・ユー
TTITLE5=オール・ユー・ウォンテッド
TTITLE6=愛ある別れ
TTITLE7=イン・マイ・ライフ
TTITLE8=キス・ミー
TTITLE9=スーパーウーマン
TTITLE10=ワン・モア・ナイト
TTITLE11=オール・ザ・ラヴ・イン・ザ・ワールド
TTITLE12=アイ・ビリーヴ・イン・ラヴ
TTITLE13=ベント
TTITLE14=ハンティング・ハイ・アンド・ロー
TTITLE15=スルー・ザ・ファイア
TTITLE16=ローズ
TTITLE17=クライ
EXTD=
EXTT0=
EXTT1=
EXTT2=
EXTT3=
EXTT4=
EXTT5=
EXTT6=
EXTT7=
EXTT8=
EXTT9=
EXTT10=
EXTT11=
EXTT12=
EXTT13=
EXTT14=
EXTT15=
EXTT16=
EXTT17=
PLAYORDER=
